Coordinates
version=1
nRows=13
nColumns=36
inDegrees=yes

Units are S.I. units (second, meters, Newtons, ...)
If the header above contains a line with 'inDegrees', this indicates whether rotational values are in degrees (yes) or radians (no).

endheader
time	pelvis_tilt	pelvis_list	pelvis_rotation	pelvis_tx	pelvis_ty	pelvis_tz	hip_flexion_r	hip_adduction_r	hip_rotation_r	knee_angle_r	knee_angle_r_beta	ankle_angle_r	subtalar_angle_r	mtp_angle_r	hip_flexion_l	hip_adduction_l	hip_rotation_l	knee_angle_l	knee_angle_l_beta	ankle_angle_l	subtalar_angle_l	mtp_angle_l	lumbar_extension	lumbar_bending	lumbar_rotation	arm_flex_r	arm_add_r	arm_rot_r	elbow_flex_r	pro_sup_r	arm_flex_l	arm_add_l	arm_rot_l	elbow_flex_l	pro_sup_l
      8.16666670	      4.86115511	     17.08830644	     15.01758794	      1.01905833	      0.88655091	      0.06021723	     48.06785742	    -20.30140092	     15.22402195	     28.22914432	      0.49269151	      0.07262259	     11.12737714	     -7.49999987	     22.86458159	     23.10824205	     -2.36580126	     51.79982736	      0.90407754	     22.64154611	    -20.48169885	     -7.49999987	    -48.90371635	    -12.85129235	    -11.06262020	     70.07702836	      3.33695207	     68.94314763	    120.91092171	     99.18581599	     80.81624001	     -2.64903882	     71.51757414	    121.14657959	     99.21266353
      8.18333330	      5.48488663	     16.26725528	     14.51838663	      1.02610325	      0.89139723	      0.06169241	     46.03411410	    -19.26790295	     14.65773415	     27.30561162	      0.47657283	     -0.07004090	     10.98480336	     -7.49999987	     20.62491156	     22.06430832	     -1.41450489	     49.07837219	      0.85657919	     21.63018976	    -20.92416736	     -7.49999987	    -47.99575430	    -12.52458157	    -10.27451942	     70.01746118	      3.81575931	     68.09407667	    121.45945350	    101.26006676	     80.32215419	     -2.85616032	     70.59887726	    121.41544322	    100.79309503
      8.20000000	      5.36676024	     15.48927402	     14.25949219	      1.02562231	      0.89467472	      0.05629754	     45.23407231	    -18.46649831	     14.28792461	     27.14995544	      0.47385611	      0.22499498	     10.88396243	     -7.49999987	     19.38380791	     21.22073531	     -0.78918541	     46.63218862	      0.81388523	     21.13415657	    -20.70638857	     -7.49999987	    -46.25329990	    -12.19097752	     -9.56695223	     69.95266504	      3.51134589	     67.99137461	    121.78158068	    101.25410988	     79.97414688	     -2.78898641	     70.34499317	    121.78801927	    100.78511301
      8.21666670	      6.44680161	     14.33363892	     13.83436945	      1.02760863	      0.90184442	      0.06058066	     42.93033621	    -17.24737847	     13.28281644	     27.13280513	      0.47355678	      0.58697883	     10.52201381	     -7.49999987	     17.02282895	     19.78213454	      0.20893437	     44.36281257	      0.77427714	     20.36885632	    -21.35701597	     -7.49999987	    -45.99582952	    -11.12651218	     -8.56180987	     70.51750605	      3.06769449	     67.72317780	    121.94049124	    101.24285012	     79.97221682	     -2.51940836	     68.98808536	    121.44113657	    100.82148912
      8.23333330	      6.81341157	     12.97800110	     13.48789630	      1.03376866	      0.90893668	      0.05681791	     41.56301052	    -15.84475768	     12.44223493	     27.64693871	      0.48253011	      0.93031462	     10.12374128	     -7.49999987	     15.41477475	     18.23228772	      1.00198115	     42.18519044	      0.73627047	     20.11872541	    -21.27804368	     -7.49999987	    -44.85057911	    -10.11433933	     -7.70013468	     70.77828431	      3.09548100	     67.77481528	    122.42815671	    101.26362272	     79.45250441	     -2.30101911	     69.18105434	    121.52605549	    100.95655570
      8.25000000	      7.20380268	     11.69799528	     13.31947964	      1.03083323	      0.91958600	      0.05831384	     40.12364772	    -14.55093902	     11.51020163	     28.24315141	      0.49293598	      0.85239560	      9.72711694	     -7.49999987	     13.73674086	     16.72774040	      1.70166588	     39.77645545	      0.69423011	     19.55004658	    -21.15688574	     -7.49999987	    -44.19110178	     -9.04092610	     -7.25192716	     70.94422594	      2.86221537	     67.34005192	    122.00689177	    100.89133126	     79.82781886	     -2.23048039	     69.48691326	    120.98195697	    100.83448043
      8.26666670	      7.11941614	     10.40725191	     13.29695946	      1.03250812	      0.92224522	      0.05782714	     39.44305488	    -13.34476055	     10.61568791	     29.40504719	      0.51321489	      0.87306833	      9.33944200	     -7.49999987	     12.99635185	     15.28552322	      2.13988374	     38.01323505	      0.66345611	     19.25263308	    -20.79891443	     -7.49999987	    -42.82119759	     -8.15354051	     -6.70607516	     70.43213302	      2.70471138	     67.72382661	    122.20545556	    100.89410672	     79.62796030	     -2.27667642	     69.54559174	    121.25225818	    100.84965093
      8.28333330	      7.24332057	      8.89870932	     13.23644242	      1.03981750	      0.92528868	      0.05261375	     38.10470714	    -11.86690737	      9.64914810	     30.38662213	      0.53034660	      1.00956839	      8.77627860	     -7.49999987	     11.71351981	     13.64957548	      2.81940807	     35.85225785	      0.62573994	     19.01020630	    -20.31350635	     -7.49999987	    -41.16911572	     -6.79686182	     -6.21536402	     69.73541843	      2.38071660	     68.68481554	    122.34665150	    100.77971892	     78.54760391	     -1.74706740	     69.68957629	    121.15836528	    100.75720163
      8.30000000	      8.03089808	      7.32626221	     13.15753058	      1.04810451	      0.93500894	      0.05472668	     35.71190673	    -10.16303670	      8.80068695	     31.08432966	      0.54252390	      1.19544208	      7.98517026	     -7.49999987	      9.35214020	     11.78170228	      3.66710866	     33.05325065	      0.57688805	     18.31047409	    -19.68889670	     -7.49999987	    -40.26363955	     -4.99649519	     -5.52374047	     68.95543490	      2.39227174	     68.66161300	    121.58863351	    100.79361974	     77.41244018	     -1.81917436	     69.46147782	    120.92900686	    101.13082081
      8.31666670	      8.41740289	      5.93360058	     13.02109696	      1.05014530	      0.94030542	      0.05294707	     34.15426459	     -8.52505094	      8.28130324	     32.19808642	      0.56196262	      1.76995885	      7.41900174	     -7.49999987	      7.51042121	     10.08048665	      3.97982622	     30.29182491	      0.52869208	     17.71713623	    -18.39244351	     -7.49999987	    -39.15907574	     -3.55517207	     -5.23022727	     67.97611746	      2.51255595	     68.52108350	    121.53401953	    100.78836237	     76.56855745	     -2.09746221	     68.75180870	    120.84014844	    102.07693429
      8.33333330	      8.33258018	      4.38235449	     12.98221331	      1.05831038	      0.94351550	      0.05415163	     33.14164991	     -6.78899982	      7.65282112	     33.84720892	      0.59074524	      2.83706774	      6.43003309	     -7.49999987	      6.31306529	      8.28794933	      4.24122924	     27.79152745	      0.48505366	     16.91503377	    -17.37653461	     -7.49999987	    -37.48886433	     -2.27204138	     -4.54908882	     66.54198597	      2.55478879	     68.61725085	    121.14308304	    100.55014367	     75.19654388	     -2.39669819	     68.99424438	    120.75021596	    101.96013528
      8.35000000	      8.16229998	      2.82535100	     12.80084653	      1.06052981	      0.94560938	      0.05198278	     32.45573575	     -4.91349871	      7.20070112	     35.92905014	      0.62708022	      3.75042111	      5.16067892	     -7.49999987	      5.45273044	      6.55339035	      4.34251880	     25.64743695	      0.44763222	     16.45830961	    -15.88422003	     -7.49999987	    -35.77967498	     -0.73538596	     -3.62394594	     65.68291271	      2.25119512	     69.04000785	    120.99795841	    100.17596941	     73.33114042	     -1.99002740	     68.36711238	    120.97404148	    101.83916286
      8.36666670	      7.97082363	      1.31850827	     12.64067811	      1.06811654	      0.94630347	      0.05306891	     31.90111209	     -3.12212921	      6.75143194	     38.49105240	      0.67179560	      5.34636015	      3.95692510	     -7.49999987	      4.58584414	      4.92369844	      4.63167051	     23.55982629	      0.41119654	     15.96200599	    -14.64948938	     -7.49999987	    -33.95042238	      0.67513107	     -3.01313872	     64.63643857	      2.24347849	     69.71714649	    120.92809933	     99.95723008	     71.73176085	     -1.54695282	     69.04034804	    121.59592898	    101.79210613
